<svg width="800" height="800" viewBox="0 0 800 800" fill="none" xmlns="http://www.w3.org/2000/svg">
<path d="M786.82 651.404C780.406 640.397 772.021 630.877 762.156 623.403C752.291 615.929 741.142 610.651 729.363 607.875C684.295 596.574 645.21 566.497 620.645 524.218C596.081 481.938 588.037 430.894 598.27 382.24C602.204 363.435 600.897 343.796 594.514 325.788C588.13 307.781 576.954 292.209 562.39 281.029C547.824 269.848 530.52 263.558 512.649 262.946C494.779 262.335 477.141 267.43 461.948 277.592C446.754 287.755 434.685 302.53 427.255 320.065C419.825 337.6 417.366 357.11 420.187 376.146C423.006 395.182 430.981 412.896 443.108 427.062C455.234 441.228 470.972 451.215 488.345 455.767C510.821 461.233 532.075 471.429 550.889 485.769C569.703 500.109 585.708 518.312 597.984 539.334C610.261 560.356 618.569 583.784 622.432 608.275C626.297 632.766 625.639 657.839 620.498 682.055C617.454 697.666 617.996 713.843 622.079 729.176C626.162 744.508 633.662 758.531 643.923 770.024C654.184 781.516 666.895 790.128 680.951 795.109C695.007 800.09 709.978 801.288 724.561 798.601C739.145 795.914 752.897 789.421 764.621 779.69C776.344 769.958 785.681 757.284 791.821 742.77C797.959 728.254 800.714 712.342 799.843 696.418C798.97 680.493 794.501 665.039 786.82 651.404Z" fill="#6A5ACD"/>
<path d="M229.03 542.824C244.901 552.162 262.996 556.175 280.996 554.347C298.997 552.519 316.079 544.934 330.053 532.565C344.028 520.195 354.256 503.606 359.424 484.927C364.594 466.246 364.468 446.327 359.064 427.724C352.215 404.003 349.775 379.058 351.885 354.318C353.995 329.578 360.611 305.531 371.358 283.555C382.103 261.579 396.767 242.105 414.506 226.25C432.246 210.396 452.713 198.474 474.735 191.165C491.815 185.397 506.929 174.31 518.178 159.301C529.427 144.292 536.308 126.031 537.953 106.815C539.6 87.5989 535.938 68.2869 527.428 51.3109C518.919 34.3338 505.942 20.4497 490.132 11.4065C474.322 2.36326 456.384 -1.43658 438.577 0.487304C420.768 2.40999 403.885 9.96897 390.052 22.2143C376.218 34.4584 366.054 50.8414 360.835 69.3004C355.618 87.7594 355.58 107.47 360.727 125.952C374.24 173.666 369.67 225.209 348.021 269.299C326.37 313.39 289.403 346.436 245.209 361.206C227.763 366.662 212.236 377.637 200.64 392.715C189.045 407.792 181.913 426.275 180.17 445.77C178.428 465.266 182.153 484.878 190.864 502.065C199.576 519.253 212.872 533.224 229.03 542.171V542.824Z" fill="#6A5ACD"/>
<path d="M462.488 526.846C450.425 527.302 438.57 530.35 427.613 535.809C416.656 541.268 406.82 549.028 398.68 558.638C367.099 595.059 323.428 616.516 277.216 618.319C231.003 620.122 186.008 602.122 152.069 568.256C143.299 559.384 132.983 552.481 121.717 547.946C110.452 543.412 98.4631 541.339 86.4474 541.845C71.6575 542.598 57.262 547.242 44.5198 555.372C31.7764 563.503 21.0739 574.872 13.3445 588.488C5.61405 602.105 1.09331 617.555 0.174494 633.489C-0.743209 649.424 1.9688 665.357 8.07608 679.902C14.1834 694.445 23.4981 707.156 35.2094 716.925C46.9207 726.694 60.6706 733.223 75.2606 735.943C89.8505 738.664 104.837 737.494 118.91 732.533C132.985 727.572 145.718 718.974 156 707.485C171.64 689.226 190.468 674.474 211.404 664.073C232.341 653.673 254.975 647.827 278.01 646.873C301.044 645.92 324.028 649.874 345.643 658.512C367.258 667.152 387.079 680.303 403.973 697.214C414.971 707.93 428.236 715.575 442.608 719.483C456.982 723.391 472.023 723.443 486.418 719.634C500.814 715.824 514.122 708.27 525.184 697.631C536.245 686.992 544.72 673.592 549.868 658.605C555.016 643.617 556.679 627.499 554.714 611.657C552.747 595.817 547.211 580.738 538.588 567.736C529.967 554.736 518.523 544.212 505.257 537.084C491.99 529.956 477.305 526.44 462.488 526.846Z" fill="#6A5ACD"/>
</svg>
